<?xml version="1.0" encoding="UTF-8"?><!DOCTYPE svg PUBLIC "-//W3C//DTD SVG 1.1//EN" "http://www.w3.org/Graphics/SVG/1.1/DTD/svg11.dtd"><svg xmlns="http://www.w3.org/2000/svg" xmlns:xlink="http://www.w3.org/1999/xlink"><symbol id="logo"><g data-name="Group 772"><g data-name="Group 690"><path data-name="Path 809" d="M18.198 18.196V.001l-9.1 9.1z" fill="#5bc6e8"/><path data-name="Path 810" d="M0 .001v18.2l9.1-9.1z" fill="#0088ce"/><path data-name="Path 811" d="M37.42.001h-18.2l9.1 9.1z" fill="#5bc6e8"/><path data-name="Path 812" d="M19.223.001v18.2l9.1-9.1z" fill="#0088ce"/><path data-name="Path 813" d="M37.42 37.419v-18.2l-9.1 9.1z" fill="#0088ce"/><path data-name="Path 814" d="M28.321 28.32l-9.1 9.1h18.2z" fill="#5bc6e8"/><path data-name="Path 815" d="M19.223 19.222v18.2l9.1-9.1z" fill="#0088ce"/><path data-name="Path 816" d="M18.198 19.222h-18.2l9.1 9.1z" fill="#0088ce"/><path data-name="Path 817" d="M0 19.222v18.2l9.1-9.1z" fill="#5bc6e8"/><path data-name="Path 818" d="M32.727 16.25H21.17l-1.946 1.944h18.2l-9.1-9.1-1.374 1.373z" fill="#1e1656"/><path data-name="Path 819" d="M13.503 16.25H1.943l-1.946 1.944h18.2l-9.1-9.1-1.374 1.373z" fill="#1e1656"/><path data-name="Path 820" d="M13.503 35.475H1.943l-1.946 1.944h18.2l-9.1-9.1-1.374 1.373z" fill="#1e1656"/><path data-name="Path 821" d="M35.475 35.475H21.168l-1.945 1.944h18.2z" fill="#1e1656"/><path data-name="Rectangle 2090" fill="#1e1656" d="M26.947 39.822l1.375-1.375 1.374 1.375-1.374 1.375z"/><path data-name="Rectangle 2091" fill="#1e1656" d="M13.776 28.32l1.375-1.375 1.374 1.375-1.374 1.375z"/><path data-name="Rectangle 2092" fill="#1e1656" d="M26.947 20.609l1.375-1.375 1.374 1.375-1.374 1.375z"/></g></g></symbol></svg>