<svg xmlns="http://www.w3.org/2000/svg" width="317.211" height="71.113" viewBox="0 0 317.211 71.113">
  <g id="Group_773" data-name="Group 773" transform="translate(-188.137 -555.797)">
    <g id="Group_715" data-name="Group 715" transform="translate(247.376 555.798)">
      <g id="Group_691" data-name="Group 691" transform="translate(0 0.002)">
        <path id="Path_822" data-name="Path 822" d="M190.573,730.814v-8.006H184.1v8.006h-3.737V711.68H184.1V719.5h6.476V711.68h3.737v19.134Z" transform="translate(-180.359 -711.68)" fill="#fff"/>
        <path id="Path_823" data-name="Path 823" d="M209.711,717.322l-2.416,6.964h4.756Zm4.462,13.492-1.127-3.387h-6.8l-1.156,3.387h-3.9l6.959-19.134h2.932l6.988,19.134Z" transform="translate(-184.883 -711.68)" fill="#fff"/>
        <path id="Path_824" data-name="Path 824" d="M239.365,730.814V719.662l-3.653,7.253h-2.529l-3.681-7.253v11.152h-3.733V711.68h3.681l5,10.346,4.97-10.346H243.1v19.134Z" transform="translate(-190.219 -711.68)" fill="#fff"/>
        <path id="Path_825" data-name="Path 825" d="M259.441,717.322l-2.417,6.964h4.757Zm4.462,13.492-1.127-3.387h-6.8l-1.152,3.387h-3.9l6.959-19.134h2.932l6.988,19.134Z" transform="translate(-195.681 -711.68)" fill="#fff"/>
        <path id="Path_826" data-name="Path 826" d="M284.85,716.2a3.331,3.331,0,0,0-2.795-1.184h-2.823v12.469h2.823a3.342,3.342,0,0,0,2.795-1.18c.7-.862.806-2.231.806-5.135s-.109-4.112-.806-4.97m2.605,12.791a6.968,6.968,0,0,1-5.054,1.828h-6.9V711.682h6.9a6.982,6.982,0,0,1,5.054,1.824c2.151,2.151,1.934,4.785,1.934,7.66s.217,5.67-1.934,7.821" transform="translate(-201.017 -711.68)" fill="#fff"/>
      </g>
      <g id="Group_692" data-name="Group 692" transform="translate(99.072 0.002)">
        <path id="Path_827" data-name="Path 827" d="M314.541,722.779h-3.9v4.7h3.9a2.356,2.356,0,1,0,0-4.7m-.242-7.769h-3.657v4.411H314.3a2.219,2.219,0,1,0,0-4.411m.617,15.8H306.91V711.68h7.684c3.733,0,5.912,2.094,5.912,5.377A4.417,4.417,0,0,1,318.142,721a4.45,4.45,0,0,1,2.634,4.3c0,3.572-2.449,5.51-5.86,5.51" transform="translate(-306.91 -711.68)" fill="#fff"/>
        <rect id="Rectangle_2093" data-name="Rectangle 2093" width="3.737" height="19.134" transform="translate(17.676 0.003)" fill="#fff"/>
        <path id="Path_828" data-name="Path 828" d="M351.271,730.814l-7.579-11.744v11.744h-3.733V711.68h3.331l7.579,11.715V711.68H354.6v19.134Z" transform="translate(-314.086 -711.68)" fill="#fff"/>
      </g>
      <g id="Group_693" data-name="Group 693" transform="translate(150.279)">
        <path id="Path_829" data-name="Path 829" d="M383.446,730.814l-4.917-8.707-2.473,2.956v5.751h-3.737V711.68h3.737v8.333l6.746-8.333h4.539l-6.339,7.6,6.8,11.53Z" transform="translate(-372.319 -711.678)" fill="#fff"/>
        <path id="Path_830" data-name="Path 830" d="M405.356,730.814v-8.006H398.88v8.006h-3.737V711.68h3.737V719.5h6.476V711.68h3.737v19.134Z" transform="translate(-377.275 -711.678)" fill="#fff"/>
        <path id="Path_831" data-name="Path 831" d="M424.494,717.322l-2.417,6.964h4.757Zm4.462,13.492-1.128-3.387h-6.8l-1.156,3.387h-3.9l6.959-19.134h2.932l6.983,19.134Z" transform="translate(-381.798 -711.678)" fill="#fff"/>
        <path id="Path_832" data-name="Path 832" d="M440.55,730.814V711.68h3.737v15.8h8.679v3.331Z" transform="translate(-387.134 -711.678)" fill="#fff"/>
        <rect id="Rectangle_2094" data-name="Rectangle 2094" width="3.737" height="19.134" transform="translate(68.865 0.005)" fill="#fff"/>
        <path id="Path_833" data-name="Path 833" d="M474.487,715.011v4.7h7.551v3.331h-7.551v7.769h-3.733V711.677h12.6v3.334Z" transform="translate(-393.692 -711.677)" fill="#fff"/>
        <path id="Path_834" data-name="Path 834" d="M496.841,717.322l-2.417,6.964h4.757Zm4.462,13.492-1.128-3.387h-6.8l-1.156,3.387h-3.9l6.959-19.134h2.932l6.987,19.134Z" transform="translate(-397.507 -711.678)" fill="#fff"/>
      </g>
    </g>
    <g id="Group_716" data-name="Group 716" transform="translate(247.376 588.447)">
      <path id="Path_835" data-name="Path 835" d="M187.4,772.883c-3.923,0-7.04-2.662-7.04-6.717V753.588h3.734v12.441c0,2.207,1.293,3.524,3.307,3.524a3.19,3.19,0,0,0,3.334-3.524V753.588h3.705v12.578c0,4.055-3.117,6.717-7.04,6.717" transform="translate(-180.359 -753.427)" fill="#fff"/>
      <path id="Path_836" data-name="Path 836" d="M214.975,772.722,207.4,760.978v11.744h-3.733V753.588h3.331l7.579,11.716V753.588h3.733v19.134Z" transform="translate(-185.419 -753.427)" fill="#fff"/>
      <rect id="Rectangle_2095" data-name="Rectangle 2095" width="3.737" height="19.134" transform="translate(37.347 0.162)" fill="#fff"/>
      <path id="Path_837" data-name="Path 837" d="M244.9,772.722H242.1l-6.315-19.134h3.87l3.842,12.469,3.842-12.469h3.9Z" transform="translate(-192.394 -753.427)" fill="#fff"/>
      <path id="Path_838" data-name="Path 838" d="M258.472,772.722V753.588h12.6v3.331H262.2v4.49h7.555v3.331H262.2v4.648h8.868v3.335Z" transform="translate(-197.32 -753.427)" fill="#fff"/>
      <path id="Path_839" data-name="Path 839" d="M286.49,756.918h-3.52v5.054h3.52a2.534,2.534,0,1,0,0-5.054m2.9,15.8-3.737-7.632H282.97v7.632h-3.733V753.588h7.5c3.9,0,6.21,2.662,6.21,5.86a5.153,5.153,0,0,1-3.5,5.026l4.273,8.248Z" transform="translate(-201.829 -753.427)" fill="#fff"/>
      <path id="Path_840" data-name="Path 840" d="M306.47,772.838c-2.9,0-5.107-.62-6.987-2.525l2.42-2.421a6.263,6.263,0,0,0,4.62,1.615c2.207,0,3.387-.834,3.387-2.368a2.127,2.127,0,0,0-.592-1.61,2.849,2.849,0,0,0-1.691-.673l-2.312-.322a6.494,6.494,0,0,1-3.709-1.587,5.042,5.042,0,0,1-1.369-3.762c0-3.411,2.525-5.8,6.665-5.8a8.2,8.2,0,0,1,6.182,2.231l-2.368,2.336a5.315,5.315,0,0,0-3.922-1.317c-1.99,0-2.956,1.1-2.956,2.42a1.843,1.843,0,0,0,.564,1.369,3.3,3.3,0,0,0,1.776.753l2.255.323a6.326,6.326,0,0,1,3.658,1.478,5.367,5.367,0,0,1,1.477,4.059c0,3.705-3.092,5.8-7.1,5.8" transform="translate(-206.225 -753.382)" fill="#fff"/>
      <rect id="Rectangle_2096" data-name="Rectangle 2096" width="3.733" height="19.134" transform="translate(110.858 0.162)" fill="#fff"/>
      <path id="Path_841" data-name="Path 841" d="M339.345,756.92v15.8h-3.733v-15.8h-5v-3.331h13.733v3.331Z" transform="translate(-212.983 -753.427)" fill="#fff"/>
      <path id="Path_842" data-name="Path 842" d="M358.741,764.874v7.845h-3.709v-7.845l-5.751-11.289h4.06l3.572,7.712,3.524-7.712h4.056Z" transform="translate(-217.037 -753.426)" fill="#fff"/>
    </g>
    <path id="Path_889" data-name="Path 889" d="M274,800.613v-2.456a1.418,1.418,0,0,0-.4-1.068,1.345,1.345,0,0,0-.982-.358,1.384,1.384,0,0,0-1.076.467v-.42h-.561v3.834h.561v-2.362a.9.9,0,0,1,.951-1.022.893.893,0,0,1,.943,1.022v2.362ZM269.38,798.7a1.671,1.671,0,0,1-.3,1.185.986.986,0,0,1-.7.281.967.967,0,0,1-.694-.281,2.41,2.41,0,0,1,0-2.37.967.967,0,0,1,.694-.281.986.986,0,0,1,.7.281,1.669,1.669,0,0,1,.3,1.185m.561,0a2.064,2.064,0,0,0-.467-1.528,1.6,1.6,0,0,0-2.2,0,2.736,2.736,0,0,0,0,3.056,1.606,1.606,0,0,0,2.2,0,2.065,2.065,0,0,0,.467-1.528m-4.185-1.913h-.561v3.83h.561Zm.038-1.72h-.63v.63h.63Zm-1.559,5.55v-.482h-.3c-.359,0-.523-.211-.523-.562v-2.339h.819V796.8h-.819v-1.2h-.56v1.2h-.483v.427h.483v2.355a.939.939,0,0,0,.981,1.029Zm-3.242-1.356a.883.883,0,0,1-.195.662,1.117,1.117,0,0,1-.857.258c-.609,0-.882-.211-.882-.655s.281-.679.857-.679h1.076Zm.561,1.356v-2.6c0-.835-.506-1.278-1.535-1.278a1.485,1.485,0,0,0-1.356.568l.381.351a1.006,1.006,0,0,1,.967-.436c.7,0,.983.28.983.842v.366h-1.154c-.858,0-1.325.437-1.325,1.107a1.1,1.1,0,0,0,.288.78,1.366,1.366,0,0,0,1.083.35,1.349,1.349,0,0,0,1.107-.412v.366ZM257.01,798.7c0,.749-.125,1.466-.96,1.466s-.967-.717-.967-1.466.133-1.466.967-1.466.96.718.96,1.466m.56,1.917v-5.55h-.56v2.158a1.237,1.237,0,0,0-1.085-.49,1.339,1.339,0,0,0-.935.335,3.074,3.074,0,0,0,0,3.259,1.338,1.338,0,0,0,.935.333,1.245,1.245,0,0,0,1.092-.5v.459Zm-4.053,0v-2.456a1.421,1.421,0,0,0-.4-1.068,1.346,1.346,0,0,0-.982-.358,1.387,1.387,0,0,0-1.076.467v-.42h-.56v3.834h.56v-2.362a.9.9,0,0,1,.952-1.022.893.893,0,0,1,.943,1.022v2.362Zm-4.264,0v-3.834h-.56v2.361a.908.908,0,0,1-.959,1.022c-.577,0-.936-.343-.936-1.022v-2.361h-.561v2.447a1.429,1.429,0,0,0,.39,1.076,1.366,1.366,0,0,0,.99.357,1.411,1.411,0,0,0,1.084-.474v.427Zm-4.582-1.917a1.671,1.671,0,0,1-.3,1.185.981.981,0,0,1-.7.281.969.969,0,0,1-.7-.281,2.41,2.41,0,0,1,0-2.37.969.969,0,0,1,.7-.281.981.981,0,0,1,.7.281,1.669,1.669,0,0,1,.3,1.185m.561,0a2.061,2.061,0,0,0-.467-1.528,1.6,1.6,0,0,0-2.2,0,2.736,2.736,0,0,0,0,3.056,1.606,1.606,0,0,0,2.2,0,2.062,2.062,0,0,0,.467-1.528m-3.452-3.1v-.53h-3.445v5.55h.592v-2.448h2.432v-.528h-2.432v-2.043Zm-5.9,1.5a1.187,1.187,0,0,0-.921-.358,1.291,1.291,0,0,0-1.076.514v-.467h-.56v3.834h.56v-2.354a.937.937,0,0,1,.921-1.029.8.8,0,0,1,.662.281Zm-4.326,2.168a.883.883,0,0,1-.195.662,1.115,1.115,0,0,1-.857.258c-.608,0-.882-.211-.882-.655s.281-.679.858-.679h1.076Zm.561,1.356v-2.6c0-.835-.506-1.278-1.534-1.278a1.486,1.486,0,0,0-1.357.568l.382.351a1.007,1.007,0,0,1,.967-.436c.7,0,.982.28.982.842v.366H230.4c-.859,0-1.325.437-1.325,1.107a1.108,1.108,0,0,0,.288.78,1.368,1.368,0,0,0,1.083.35,1.349,1.349,0,0,0,1.107-.412v.366Zm-3.632,0v-.482h-.3c-.359,0-.522-.211-.522-.562v-2.339h.818V796.8h-.818v-1.2h-.56v1.2h-.484v.427h.484v2.355a.939.939,0,0,0,.98,1.029Zm-3.241-1.356a.886.886,0,0,1-.195.662,1.118,1.118,0,0,1-.858.258c-.609,0-.882-.211-.882-.655s.281-.679.858-.679h1.076Zm.561,1.356v-2.6c0-.835-.507-1.278-1.535-1.278a1.487,1.487,0,0,0-1.357.568l.381.351a1.008,1.008,0,0,1,.967-.436c.7,0,.983.28.983.842v.366h-1.155c-.857,0-1.324.436-1.324,1.107a1.1,1.1,0,0,0,.287.779,1.367,1.367,0,0,0,1.083.35,1.351,1.351,0,0,0,1.108-.412v.366Zm-4.458-2.774a3.184,3.184,0,0,1-.226,1.645l-.679-.678-.359.359.7.7a1.278,1.278,0,0,1-.788.265,1.346,1.346,0,0,1-.959-.4c-.351-.359-.389-.733-.389-1.895s.038-1.536.389-1.895a1.356,1.356,0,0,1,1.919,0c.35.359.39.733.39,1.895m.817,2.689-.607-.608c.382-.474.382-1.021.382-2.081,0-1.178,0-1.723-.522-2.245a2.035,2.035,0,0,0-2.838,0c-.521.522-.521,1.067-.521,2.245s0,1.723.521,2.245a1.967,1.967,0,0,0,1.419.575,1.937,1.937,0,0,0,1.193-.388l.615.615Zm-6.571-3.3V796.8h-.818v-.711c0-.351.156-.562.514-.562h.3v-.481h-.4a.933.933,0,0,0-.973,1.029v.726h-.492v.427h.492v3.384h.56v-3.384Zm-3.109,1.466a1.675,1.675,0,0,1-.3,1.185.985.985,0,0,1-.7.281.966.966,0,0,1-.694-.281,2.4,2.4,0,0,1,0-2.37.966.966,0,0,1,.694-.281.985.985,0,0,1,.7.281,1.673,1.673,0,0,1,.3,1.185m.56,0a2.057,2.057,0,0,0-.467-1.528,1.6,1.6,0,0,0-2.2,0,2.736,2.736,0,0,0,0,3.056,1.606,1.606,0,0,0,2.2,0,2.059,2.059,0,0,0,.467-1.528m-5.284-1.606a1.183,1.183,0,0,0-.919-.358,1.289,1.289,0,0,0-1.076.514v-.467H205.2v3.834h.561v-2.354a.937.937,0,0,1,.919-1.029.8.8,0,0,1,.663.281Zm-4.154,1.333h-2.027a1.609,1.609,0,0,1,.117-.639.984.984,0,0,1,1.792,0,1.623,1.623,0,0,1,.117.639m.561.42v-.257c0-1.138-.585-1.855-1.575-1.855-.974,0-1.574.724-1.574,1.964,0,1.357.662,1.963,1.675,1.963a1.755,1.755,0,0,0,1.4-.592l-.382-.334a1.26,1.26,0,0,1-1.006.436c-.732,0-1.13-.483-1.13-1.326Zm-4.544-.147c0,.749-.125,1.466-.959,1.466s-.967-.717-.967-1.466.132-1.466.967-1.466.959.718.959,1.466m.56,0a2.288,2.288,0,0,0-.467-1.629,1.338,1.338,0,0,0-.936-.335,1.233,1.233,0,0,0-1.083.49v-2.158h-.561v5.55h.561v-.459a1.23,1.23,0,0,0,1.083.5,1.337,1.337,0,0,0,.936-.333,2.292,2.292,0,0,0,.467-1.63m-4.255,1.917v-2.456a1.428,1.428,0,0,0-.413-1.068,1.4,1.4,0,0,0-.99-.358,1.469,1.469,0,0,0-1.263.638,1.265,1.265,0,0,0-1.177-.638A1.4,1.4,0,0,0,191,797.2v-.42h-.561v3.834H191v-2.362a.908.908,0,0,1,.959-1.022.893.893,0,0,1,.943,1.022v2.362h.561v-2.425a.953.953,0,1,1,1.9.063v2.362Zm-7.086-2.19h-2.026a1.6,1.6,0,0,1,.117-.639.985.985,0,0,1,1.793,0,1.61,1.61,0,0,1,.117.639m.561.42v-.257c0-1.138-.585-1.855-1.575-1.855-.974,0-1.573.724-1.573,1.964,0,1.357.661,1.963,1.675,1.963a1.755,1.755,0,0,0,1.4-.592l-.382-.334a1.259,1.259,0,0,1-1.005.436c-.733,0-1.13-.483-1.13-1.326Zm-4.287,1.77v-5.55h-.592L182.76,799l-1.809-3.937h-.592v5.55h.592V796.4l1.544,3.344H183l1.52-3.344v4.216Z" transform="translate(67.017 -173.975)" fill="#fff"/>
    <g id="Group_714" data-name="Group 714" transform="translate(188.137 555.797)">
      <path id="Path_845" data-name="Path 845" d="M233.41,40.19H210.66L222,51.6Z" transform="translate(-182.187 -40.19)" fill="#fff"/>
      <path id="Path_846" data-name="Path 846" d="M209.18,41.45V64.411l11.446-11.446Z" transform="translate(-181.866 -40.464)" fill="#fff"/>
      <path id="Path_847" data-name="Path 847" d="M232.748,68.3l-10.8-10.8-1.879,1.879,6.772,6.772H213.3l-2.662,2.662h22.617Z" transform="translate(-182.183 -43.949)" fill="#fff"/>
      <path id="Path_848" data-name="Path 848" d="M202.893,64.422V41.57L191.51,52.953Z" transform="translate(-178.029 -40.49)" fill="#fff"/>
      <path id="Path_849" data-name="Path 849" d="M174.29,41.47V64.314l11.383-11.383Z" transform="translate(-174.29 -40.468)" fill="#fff"/>
      <path id="Path_850" data-name="Path 850" d="M191.844,66.155H178.332l-2.662,2.662h22.586l-11.289-11.3L185.088,59.4Z" transform="translate(-174.59 -43.953)" fill="#fff"/>
      <rect id="Rectangle_2098" data-name="Rectangle 2098" width="2.654" height="2.654" transform="translate(18.822 39.886) rotate(-45)" fill="#fff"/>
      <path id="Path_851" data-name="Path 851" d="M198.42,75.24H175.74l11.3,11.383Z" transform="translate(-174.605 -47.801)" fill="#fff"/>
      <path id="Path_852" data-name="Path 852" d="M174.29,76.48V99.332l11.383-11.391Z" transform="translate(-174.29 -48.07)" fill="#fff"/>
      <path id="Path_853" data-name="Path 853" d="M193.064,98.575,186.989,92.5l-1.879,1.871,6.827,6.827H178.292l-2.662,2.654,22.68.008Z" transform="translate(-174.581 -51.548)" fill="#fff"/>
      <rect id="Rectangle_2099" data-name="Rectangle 2099" width="2.654" height="2.654" transform="translate(37.87 55.588) rotate(-45)" fill="#fff"/>
      <rect id="Rectangle_2100" data-name="Rectangle 2100" width="2.654" height="2.654" transform="translate(37.874 29.342) rotate(-45)" fill="#fff"/>
      <path id="Path_854" data-name="Path 854" d="M209.18,75.24V99.086L221.064,87.2Z" transform="translate(-181.866 -47.801)" fill="#fff"/>
      <path id="Path_855" data-name="Path 855" d="M230.571,103.61H213.184l-2.654,2.654,22.68.008Z" transform="translate(-182.159 -53.961)" fill="#fff"/>
      <path id="Path_856" data-name="Path 856" d="M237.646,75.24V99.086L225.77,87.2Z" transform="translate(-185.468 -47.801)" fill="#fff"/>
    </g>
  </g>
</svg>
