<svg xmlns="http://www.w3.org/2000/svg" width="243.42" height="127.427" viewBox="0 0 243.42 127.427">
  <g id="HBKU-Solid_White" data-name="HBKU-Solid White" transform="translate(-42.52 -40.19)">
    <path id="Path_547" data-name="Path 547" d="M48.507,102.725V98.039H44.7v4.686H42.52V91.512H44.7v4.576h3.791V91.512h2.184v11.213Zm11.176,0-.662-1.987H55.033l-.675,1.987H52.077L56.15,91.512h1.718l4.1,11.213Zm-2.613-7.9L55.659,98.9h2.785Zm14.243,7.9V96.186l-2.147,4.257H67.682l-2.159-4.257v6.539H63.351V91.512H65.51l2.932,6.06,2.908-6.06h2.159v11.213Zm11.176,0-.662-1.987H77.839l-.675,1.987H74.883l4.073-11.213h1.718l4.1,11.213Zm-2.613-7.9L78.453,98.9h2.785Zm13.286,6.833a4.082,4.082,0,0,1-2.957,1.067H86.157V91.512h4.048a4.082,4.082,0,0,1,2.957,1.067c1.264,1.264,1.129,2.8,1.129,4.49S94.413,100.394,93.162,101.658Zm-1.533-7.5A1.959,1.959,0,0,0,90,93.475H88.341v7.3H90a1.928,1.928,0,0,0,1.632-.687c.4-.5.478-1.313.478-3.006S92.046,94.665,91.628,94.162Zm13.617,8.563H100.56V91.512h4.5c2.184,0,3.46,1.227,3.46,3.153a2.614,2.614,0,0,1-1.386,2.319,2.606,2.606,0,0,1,1.546,2.515C108.681,101.6,107.246,102.725,105.246,102.725Zm-.356-9.25h-2.147v2.576h2.147a1.3,1.3,0,1,0,0-2.576Zm.135,4.551h-2.282v2.76h2.282a1.321,1.321,0,0,0,1.46-1.386A1.306,1.306,0,0,0,105.025,98.027Zm5.889,4.7V91.512H113.1v11.213Zm11.434,0-4.441-6.882v6.882h-2.184V91.512h1.951l4.441,6.87v-6.87H124.3v11.213Zm14.734,0-2.883-5.1-1.448,1.73v3.374h-2.184V91.512h2.184V96.4l3.95-4.883h2.662l-3.717,4.453,3.987,6.76Zm9.937,0V98.039h-3.791v4.686h-2.184V91.512h2.184v4.576h3.791V91.512H149.2v11.213Zm11.176,0-.662-1.987h-3.987l-.675,1.987h-2.282l4.073-11.213h1.717l4.1,11.213Zm-2.613-7.9L154.17,98.9h2.785Zm6.269,7.9V91.512h2.184v9.262h5.091v1.951Zm9.054,0V91.512h2.184v11.213Zm6.993-9.25v2.76h4.429v1.951H177.9v4.551h-2.184V91.525H183.1v1.951h-5.2Zm13.47,9.25-.662-1.987h-3.987l-.675,1.987h-2.282l4.073-11.213h1.717l4.1,11.213Zm-2.613-7.9L187.343,98.9h2.785Zm-77.361,27.222a3.9,3.9,0,0,1-4.122-3.938v-7.373h2.184v7.287a1.948,1.948,0,1,0,3.889,0v-7.287h2.171v7.373A3.9,3.9,0,0,1,111.392,122.047Zm13.188-.1-4.441-6.882v6.882h-2.184V110.736h1.951l4.441,6.87v-6.87h2.184v11.213Zm4.564,0V110.736h2.184v11.213Zm8.882,0h-1.632l-3.7-11.213h2.27l2.257,7.3,2.245-7.3h2.282Zm5.067,0V110.736h7.385v1.951h-5.2v2.625H149.7v1.951h-4.429v2.723h5.2v1.951h-7.385Zm15.47,0-2.184-4.466h-1.57v4.466h-2.184V110.736h4.392a3.385,3.385,0,0,1,3.631,3.435,3.016,3.016,0,0,1-2.049,2.944l2.5,4.834Zm-1.693-9.25h-2.061v2.957h2.061a1.483,1.483,0,1,0,0-2.957ZM166,122.047a5.278,5.278,0,0,1-4.1-1.484l1.411-1.423a3.664,3.664,0,0,0,2.711.945c1.288,0,1.987-.491,1.987-1.386a1.26,1.26,0,0,0-.343-.945,1.634,1.634,0,0,0-.994-.393l-1.349-.184a3.827,3.827,0,0,1-2.171-.932,2.958,2.958,0,0,1-.8-2.208c0-2,1.484-3.4,3.9-3.4a4.779,4.779,0,0,1,3.619,1.313l-1.386,1.374a3.13,3.13,0,0,0-2.294-.773c-1.165,0-1.73.65-1.73,1.423a1.085,1.085,0,0,0,.331.8,1.87,1.87,0,0,0,1.043.442l1.325.184a3.793,3.793,0,0,1,2.147.871,3.131,3.131,0,0,1,.871,2.38C170.155,120.82,168.34,122.047,166,122.047Zm6.22-.1V110.736H174.4v11.213Zm9.078-9.25v9.262h-2.184V112.7h-2.932v-1.963h8.048v1.951h-2.932Zm8.992,4.65v4.6h-2.171v-4.6l-3.374-6.612h2.38l2.1,4.515,2.061-4.515h2.38ZM101.161,69.626l-1.852,1.852,6.171,6.2H92.107v-14.8l-2.65,2.589V77.686H81.029V69.639l-2.65,2.589V77.7H68.405a5.533,5.533,0,0,0,1.533-4.392,4.549,4.549,0,0,0-4.834-3.975,4.62,4.62,0,0,0-4.87,3.975A5.55,5.55,0,0,0,61.793,77.7H51.733V69.675h-4.65c-2.883,0-4.564,1.767-4.564,5.4,0,3.889,2.6,5.263,4.564,5.263h64.738ZM48.912,77.674H47.243c-1.178,0-1.9-1.325-1.9-2.625,0-1.141.343-2.883,1.9-2.883h1.668Zm16.194-.613A3.813,3.813,0,0,1,63.093,73.4a1.978,1.978,0,0,1,2.012-1.718A2.03,2.03,0,0,1,67.093,73.4,3.76,3.76,0,0,1,65.105,77.061ZM103.283,66.13,101.455,64.3,99.6,66.155l1.828,1.828ZM83.556,83.661l-1.828-1.828-1.852,1.852L81.7,85.513Zm-3.68,0-1.828-1.828L76.2,83.685l1.828,1.828ZM66.958,66.13,65.13,64.3l-1.852,1.852,1.828,1.828Zm-15.249,0L49.881,64.3l-1.852,1.852,1.828,1.828Zm-3.68,0L46.2,64.3l-1.852,1.852,1.828,1.828Zm110.657-7.937a3.616,3.616,0,0,0,3.2-1.693,3.661,3.661,0,0,0,3.361,1.693c3.092,0,4.809-2.245,4.809-5.692s-1.742-5.717-4.809-5.717c-2.822,0-4.65,1.987-4.809,5.005-.074,1.509,0,3.779-2.392,3.779h-8.759l2.871-2.515c0-3.276-2.319-5.852-6.208-5.852s-6.208,2.589-6.208,5.852l2.846,2.515H131.867V47.532h-4.65c-2.883,0-4.564,1.767-4.564,5.4,0,3.889,2.6,5.263,4.564,5.263Zm6.563-8.992c1.153,0,1.914.822,1.914,3.361,0,2.355-.773,3.2-1.914,3.2s-1.9-.822-1.9-3.226C163.359,50.022,164.12,49.2,165.248,49.2Zm-36.19,6.355h-1.668c-1.178,0-1.9-1.325-1.9-2.625,0-1.141.344-2.883,1.9-2.883h1.668ZM142.749,52.3a3.261,3.261,0,0,1,6.392,0l-3.177,2.834C145.239,54.549,143.559,53.065,142.749,52.3Zm50.8,5.889L182.939,47.618l-1.852,1.852,6.122,6.085H175.835V40.76l-2.65,2.589V58.193Zm-6.931,3.337L184.791,59.7l-1.852,1.852,1.828,1.828Zm-3.656,8.085-1.852,1.852,6.208,6.208H175.627c-1.4,0-2.073-.454-2.073-1.423,0-2.993-1.668-5.447-4.809-5.447-3.03,0-4.711,2.122-4.895,5.447-.11,1.374-1.448,1.349-2.552,1.423h-7.287V69.626l-2.65,2.589v5.471h-4.784v2.625h15.531a5.661,5.661,0,0,0,2.478-.5,4.465,4.465,0,0,0,4.147,2.454A4.31,4.31,0,0,0,172.9,79.7a6.771,6.771,0,0,0,2.846.6v.012h17.9ZM168.745,79.625c-1.153,0-1.914-.8-1.914-3.153,0-2.429.773-3.226,1.914-3.226s1.914.8,1.914,3.288C170.658,78.8,169.886,79.625,168.745,79.625Zm-28.437.687V69.663l-2.65,2.589v5.471h-7.324c-1.484,0-2.552-.712-2.552-1.963V69.675h-2.846v10c0,1.374-.564,2.11-1.987,2.11s-2.049-.736-2.049-2.11v-10h-2.822V79.747a4.482,4.482,0,0,0,4.539,4.711,5.087,5.087,0,0,0,.613,0,4.481,4.481,0,0,0,4.564-4.686v-.086a4.711,4.711,0,0,0,2.208.65h10.305ZM124.727,66.13,122.9,64.3l-1.852,1.852,1.828,1.828Zm16.1,17.531-1.828-1.828-1.852,1.852,1.828,1.828ZM132.358,43.9l-1.828-1.828-1.852,1.852,1.828,1.828Zm-3.68,0-1.828-1.828L125,43.925l1.828,1.828Z" transform="translate(0 0.129)" fill="#fff"/>
    <g id="Group_368" data-name="Group 368" transform="translate(204.174 40.19)">
      <path id="Path_548" data-name="Path 548" d="M246.311,40.19H210.66l17.764,17.887Z" transform="translate(-166.042 -40.19)" fill="#fff"/>
      <path id="Path_549" data-name="Path 549" d="M209.18,41.45V77.432L227.116,59.5Z" transform="translate(-166.377 -39.904)" fill="#fff"/>
      <path id="Path_550" data-name="Path 550" d="M245.285,74.417,228.367,57.5l-2.944,2.944,10.612,10.612H214.811l-4.171,4.171h35.442Z" transform="translate(-166.046 -36.264)" fill="#fff"/>
      <path id="Path_551" data-name="Path 551" d="M209.348,77.38V41.57L191.51,59.408Z" transform="translate(-170.385 -39.877)" fill="#fff"/>
      <path id="Path_552" data-name="Path 552" d="M174.29,41.47v35.8L192.128,59.43Z" transform="translate(-174.29 -39.9)" fill="#fff"/>
      <path id="Path_553" data-name="Path 553" d="M201.016,71.052H179.841l-4.171,4.171h35.393l-17.69-17.7-2.944,2.944Z" transform="translate(-173.977 -36.26)" fill="#fff"/>
      <rect id="Rectangle_1875" data-name="Rectangle 1875" width="4.159" height="4.159" transform="translate(29.495 62.503) rotate(-45)" fill="#fff"/>
      <path id="Path_554" data-name="Path 554" d="M211.28,75.24H175.74l17.7,17.838Z" transform="translate(-173.961 -32.241)" fill="#fff"/>
      <path id="Path_555" data-name="Path 555" d="M174.29,76.48v35.81l17.838-17.85Z" transform="translate(-174.29 -31.96)" fill="#fff"/>
      <path id="Path_556" data-name="Path 556" d="M202.951,102.02l-9.52-9.52-2.944,2.932,10.7,10.7H179.8l-4.171,4.159,35.54.012Z" transform="translate(-173.986 -28.327)" fill="#fff"/>
      <rect id="Rectangle_1876" data-name="Rectangle 1876" width="4.159" height="4.159" transform="translate(59.344 87.11) rotate(-45)" fill="#fff"/>
      <rect id="Rectangle_1877" data-name="Rectangle 1877" width="4.159" height="4.159" transform="translate(59.351 45.98) rotate(-45)" fill="#fff"/>
      <path id="Path_557" data-name="Path 557" d="M209.18,75.24v37.368L227.8,93.985Z" transform="translate(-166.377 -32.241)" fill="#fff"/>
      <path id="Path_558" data-name="Path 558" d="M241.936,103.61H214.689l-4.159,4.159,35.54.012Z" transform="translate(-166.071 -25.807)" fill="#fff"/>
      <path id="Path_559" data-name="Path 559" d="M244.38,75.24v37.368L225.77,93.985Z" transform="translate(-162.615 -32.241)" fill="#fff"/>
    </g>
    <g id="Group_374" data-name="Group 374" transform="translate(91.481 141.633)">
      <path id="Path_560" data-name="Path 560" d="M227.891,145.328v-3.815a2.212,2.212,0,0,0-.613-1.656,2.069,2.069,0,0,0-1.521-.552,2.155,2.155,0,0,0-1.668.724v-.65h-.871v5.962h.871v-3.668a1.4,1.4,0,0,1,1.484-1.583,1.38,1.38,0,0,1,1.46,1.583v3.668h.859Zm-7.177-2.981a2.582,2.582,0,0,1-.478,1.84,1.519,1.519,0,0,1-1.092.442,1.49,1.49,0,0,1-1.08-.442,2.582,2.582,0,0,1-.478-1.84,2.625,2.625,0,0,1,.478-1.84,1.49,1.49,0,0,1,1.08-.442,1.519,1.519,0,0,1,1.092.442,2.582,2.582,0,0,1,.478,1.84m.871,0a3.2,3.2,0,0,0-.724-2.368,2.327,2.327,0,0,0-1.705-.675,2.355,2.355,0,0,0-1.705.675,4.235,4.235,0,0,0,0,4.735,2.492,2.492,0,0,0,3.41,0,3.2,3.2,0,0,0,.724-2.368m-6.5-2.969h-.871v5.95h.871Zm.061-2.674h-.981v.981h.981Zm-2.417,8.624v-.748h-.466c-.552,0-.81-.331-.81-.871v-3.631h1.276v-.662h-1.276V137.55h-.871v1.865h-.748v.662h.748v3.656a1.455,1.455,0,0,0,1.521,1.595h.626Zm-5.042-2.11a1.38,1.38,0,0,1-.307,1.031,1.736,1.736,0,0,1-1.337.4c-.945,0-1.374-.331-1.374-1.018s.442-1.055,1.337-1.055h1.668v.638Zm.871,2.11V141.28c0-1.3-.785-1.987-2.38-1.987a2.328,2.328,0,0,0-2.11.883l.589.54a1.572,1.572,0,0,1,1.5-.675c1.092,0,1.521.429,1.521,1.313v.564h-1.791c-1.337,0-2.061.675-2.061,1.717a1.755,1.755,0,0,0,.442,1.215,2.151,2.151,0,0,0,1.681.54,2.1,2.1,0,0,0,1.717-.638v.564h.9Zm-7.054-2.981c0,1.165-.2,2.282-1.5,2.282s-1.5-1.116-1.5-2.282.209-2.282,1.5-2.282,1.5,1.116,1.5,2.282m.871,2.981V136.7H201.5v3.349a1.93,1.93,0,0,0-1.681-.761,2.089,2.089,0,0,0-1.448.515,4.774,4.774,0,0,0,0,5.054,2.055,2.055,0,0,0,1.448.515,1.931,1.931,0,0,0,1.693-.785v.712h.859Zm-6.293,0v-3.815a2.212,2.212,0,0,0-.613-1.656,2.069,2.069,0,0,0-1.521-.552,2.155,2.155,0,0,0-1.668.724v-.65h-.871v5.962h.871v-3.668a1.4,1.4,0,0,1,1.484-1.583,1.38,1.38,0,0,1,1.46,1.583v3.668h.859Zm-6.625,0v-5.95h-.871v3.668a1.4,1.4,0,0,1-1.484,1.583,1.38,1.38,0,0,1-1.46-1.583v-3.668h-.871v3.8a2.234,2.234,0,0,0,.6,1.668,2.15,2.15,0,0,0,1.533.552,2.191,2.191,0,0,0,1.681-.736v.662h.871Zm-7.128-2.981a2.582,2.582,0,0,1-.478,1.84,1.519,1.519,0,0,1-1.092.442,1.49,1.49,0,0,1-1.08-.442,3.778,3.778,0,0,1,0-3.68,1.49,1.49,0,0,1,1.08-.442,1.519,1.519,0,0,1,1.092.442,2.582,2.582,0,0,1,.478,1.84m.871,0a3.2,3.2,0,0,0-.724-2.368,2.327,2.327,0,0,0-1.705-.675,2.355,2.355,0,0,0-1.705.675,4.234,4.234,0,0,0,0,4.735,2.492,2.492,0,0,0,3.41,0,3.2,3.2,0,0,0,.724-2.368m-5.361-4.821V136.7h-5.349v8.624h.92v-3.8h3.779V140.7h-3.779v-3.177Zm-9.164,2.331a1.866,1.866,0,0,0-1.435-.552,2.02,2.02,0,0,0-1.668.8v-.724H164.7v5.962h.871v-3.656a1.45,1.45,0,0,1,1.435-1.595,1.254,1.254,0,0,1,1.031.442Zm-6.723,3.361a1.38,1.38,0,0,1-.307,1.031,1.736,1.736,0,0,1-1.337.4c-.945,0-1.374-.331-1.374-1.018s.442-1.055,1.337-1.055h1.668v.638Zm.871,2.11V141.28c0-1.3-.785-1.987-2.38-1.987a2.328,2.328,0,0,0-2.11.883l.589.54a1.572,1.572,0,0,1,1.5-.675c1.092,0,1.521.429,1.521,1.313v.564h-1.791c-1.337,0-2.061.675-2.061,1.717a1.755,1.755,0,0,0,.442,1.215,2.151,2.151,0,0,0,1.681.54,2.1,2.1,0,0,0,1.717-.638v.564h.9Zm-5.643,0v-.748h-.466c-.552,0-.81-.331-.81-.871v-3.631h1.276v-.662H155.9V137.55h-.871v1.865h-.748v.662h.748v3.656a1.455,1.455,0,0,0,1.521,1.595h.626Zm-5.03-2.11a1.38,1.38,0,0,1-.307,1.031,1.736,1.736,0,0,1-1.337.4c-.945,0-1.374-.331-1.374-1.018s.442-1.055,1.337-1.055h1.668v.638Zm.871,2.11V141.28c0-1.3-.785-1.987-2.38-1.987a2.328,2.328,0,0,0-2.11.883l.589.54a1.572,1.572,0,0,1,1.5-.675c1.092,0,1.521.429,1.521,1.313v.564h-1.791c-1.337,0-2.061.675-2.061,1.717a1.755,1.755,0,0,0,.442,1.215,2.151,2.151,0,0,0,1.681.54,2.1,2.1,0,0,0,1.717-.638v.564h.9Zm-6.931-4.306a4.85,4.85,0,0,1-.356,2.552l-1.055-1.055-.552.552,1.092,1.092a1.977,1.977,0,0,1-1.227.417,2.1,2.1,0,0,1-1.484-.613c-.54-.552-.6-1.141-.6-2.944s.061-2.392.6-2.944a2.067,2.067,0,0,1,1.484-.613,2.147,2.147,0,0,1,1.5.613c.54.552.6,1.129.6,2.944m1.276,4.171-.945-.945c.589-.736.589-1.583.589-3.239,0-1.828,0-2.674-.81-3.484a3.17,3.17,0,0,0-4.416,0c-.81.81-.81,1.656-.81,3.484s0,2.674.81,3.484a3.075,3.075,0,0,0,2.208.9,3.044,3.044,0,0,0,1.852-.6l.957.957Zm-10.207-5.128V139.4h-1.276v-1.1c0-.54.245-.871.8-.871h.466v-.748h-.626a1.445,1.445,0,0,0-1.509,1.595V139.4h-.761v.662h.761v5.251h.871v-5.251Zm-4.834,2.282a2.637,2.637,0,0,1-.466,1.84,1.519,1.519,0,0,1-1.092.442,1.49,1.49,0,0,1-1.08-.442,3.7,3.7,0,0,1,0-3.68,1.49,1.49,0,0,1,1.08-.442,1.519,1.519,0,0,1,1.092.442,2.637,2.637,0,0,1,.466,1.84m.871,0a3.2,3.2,0,0,0-.724-2.368,2.327,2.327,0,0,0-1.705-.675,2.355,2.355,0,0,0-1.705.675,4.234,4.234,0,0,0,0,4.735,2.492,2.492,0,0,0,3.41,0,3.2,3.2,0,0,0,.724-2.368m-8.207-2.49a1.856,1.856,0,0,0-1.423-.552,2,2,0,0,0-1.668.8v-.724h-.871v5.962h.871v-3.656a1.448,1.448,0,0,1,1.423-1.595,1.239,1.239,0,0,1,1.031.442Zm-6.453,2.073h-3.153a2.519,2.519,0,0,1,.184-.994,1.521,1.521,0,0,1,2.773,0,2.23,2.23,0,0,1,.2.994m.871.65v-.4c0-1.767-.908-2.883-2.441-2.883-1.509,0-2.441,1.129-2.441,3.055,0,2.11,1.031,3.055,2.6,3.055a2.761,2.761,0,0,0,2.184-.92l-.6-.528a1.923,1.923,0,0,1-1.558.675c-1.141,0-1.754-.748-1.754-2.061h4.012Zm-7.066-.233c0,1.165-.2,2.282-1.484,2.282s-1.5-1.116-1.5-2.282.209-2.282,1.5-2.282,1.484,1.116,1.484,2.282m.871,0a3.562,3.562,0,0,0-.724-2.527,2.055,2.055,0,0,0-1.448-.515,1.917,1.917,0,0,0-1.681.761v-3.349h-.871v8.624h.871v-.712a1.91,1.91,0,0,0,1.681.785,2.089,2.089,0,0,0,1.448-.515,3.6,3.6,0,0,0,.724-2.552m-6.6,2.981v-3.815a2.227,2.227,0,0,0-.638-1.656,2.15,2.15,0,0,0-1.533-.552,2.3,2.3,0,0,0-1.963.994,1.977,1.977,0,0,0-1.828-.994,2.181,2.181,0,0,0-1.681.724v-.65H98.1v5.962h.871v-3.668a1.4,1.4,0,0,1,1.484-1.583,1.38,1.38,0,0,1,1.46,1.583v3.668h.871v-3.766a1.48,1.48,0,1,1,2.957.1v3.668h.871Zm-11.017-3.4H92.453a2.519,2.519,0,0,1,.184-.994,1.487,1.487,0,0,1,1.386-.9,1.5,1.5,0,0,1,1.4.9,2.681,2.681,0,0,1,.172.994m.871.65v-.4c0-1.767-.908-2.883-2.441-2.883-1.509,0-2.441,1.129-2.441,3.055,0,2.11,1.031,3.055,2.6,3.055a2.761,2.761,0,0,0,2.184-.92l-.589-.515a1.923,1.923,0,0,1-1.558.675c-1.141,0-1.754-.748-1.754-2.061h4Zm-6.649,2.748V136.7H88.9l-2.736,6.122L83.35,136.7h-.92v8.624h.92v-6.551l2.392,5.189h.785l2.355-5.189v6.551Z" transform="translate(-82.43 -119.762)" fill="#fff"/>
      <g id="Group_373" data-name="Group 373" transform="translate(0.025 0)">
        <g id="Group_369" data-name="Group 369">
          <rect id="Rectangle_1878" data-name="Rectangle 1878" width="1.043" height="1.043" transform="translate(28.057 1.018)" fill="#fff"/>
          <path id="Path_561" data-name="Path 561" d="M97.9,131.455h5.631a1.884,1.884,0,0,0,1.693-.748,1.8,1.8,0,0,0,1.619.748h3.509c1.435,0,2.159-1.165,2.159-2.711,0-2.036-1.215-2.613-2.306-2.613a2.34,2.34,0,0,0-2.294,2.613,2.976,2.976,0,0,0,.564,1.9h-1.619a1.113,1.113,0,0,1-1.276-1.19v-1.1c0-2.122-2.147-2.478-3.533-2.024a7.471,7.471,0,0,0-2.036,1.092V122.88h-.92v7.778H86.3a1.15,1.15,0,0,1-1.276-1.19v-2.932h-.92v4.932c0,.4-.025,1.448-1.092,1.448a2.564,2.564,0,0,1-.466-.037l-.1.736a5.11,5.11,0,0,0,.638.037c1.583,0,1.951-1.08,1.951-2.184v-.356a2.019,2.019,0,0,0,1.276.38H97.9Zm6.784-2.184c0,1.2-.54,1.362-1.472,1.362H99.981v-2.38a4.942,4.942,0,0,1,2.1-1.19c1.251-.356,2.6-.061,2.6,1.558v.65Zm5.521,1.362c-1.03,0-1.423-.822-1.423-1.9,0-1.386.7-1.816,1.423-1.816.748,0,1.435.429,1.435,1.816C111.635,130.044,111.132,130.633,110.2,130.633Z" transform="translate(-82.45 -122.88)" fill="#fff"/>
          <rect id="Rectangle_1879" data-name="Rectangle 1879" width="1.043" height="1.043" transform="translate(26.425 1.018)" fill="#fff"/>
        </g>
        <g id="Group_370" data-name="Group 370" transform="translate(34.497 0.245)">
          <rect id="Rectangle_1880" data-name="Rectangle 1880" width="1.043" height="1.043" transform="translate(2.846 0.834)" fill="#fff"/>
          <rect id="Rectangle_1881" data-name="Rectangle 1881" width="1.043" height="1.043" transform="translate(1.215 0.834)" fill="#fff"/>
          <path id="Path_562" data-name="Path 562" d="M127.9,130.857h.736a2.026,2.026,0,0,0,1.8-.883,1.691,1.691,0,0,0,1.632.945,1.925,1.925,0,0,0,1.754-.846,1.729,1.729,0,0,0,1.595.846,1.913,1.913,0,0,0,1.779-.883,1.768,1.768,0,0,0,1.583.822h.846a2.026,2.026,0,0,0,1.8-.883,1.691,1.691,0,0,0,1.632.945,1.913,1.913,0,0,0,1.779-.883,1.618,1.618,0,0,0,1.583.822h2.061V125.9h-.92v4.134h-1.141c-.282,0-1.276.049-1.276-1.411v-2.4h-.92v2.539c0,.8-.319,1.337-1.153,1.337a1.107,1.107,0,0,1-1.264-1.178v-2.331h-.92v2.147c0,1.276-.932,1.3-1.411,1.3h-.675a1.113,1.113,0,0,1-1.276-1.19v-2.932h-.92v2.846c0,.8-.319,1.337-1.153,1.337a1.107,1.107,0,0,1-1.264-1.178v-2.7h-.92v2.539c0,.8-.319,1.337-1.153,1.337a1.107,1.107,0,0,1-1.264-1.178v-2.331h-.92v2.147c0,1.276-.932,1.3-1.411,1.3H116.14c-.638,0-.969-.319-.969-1.08V125.52h-2.306c-1.337,0-2.294.981-2.294,2.785a2.278,2.278,0,0,0,2.294,2.539,1.991,1.991,0,0,0,1.73-.92,1.67,1.67,0,0,0,1.448.92H127.9Zm-13.666-2.5a1.563,1.563,0,0,1-1.435,1.73c-.724,0-1.423-.368-1.423-1.754,0-1.08.38-1.975,1.423-1.975h1.435Z" transform="translate(-110.57 -122.527)" fill="#fff"/>
          <path id="Path_563" data-name="Path 563" d="M145.865,124.589h-.834a.607.607,0,0,1-.564-.65.418.418,0,0,1,.454-.429.768.768,0,0,1,.577.27l.319-.294a1.149,1.149,0,0,0-.9-.4.886.886,0,0,0-.859.515.979.979,0,0,0,.123.994h-.564v.429h2.257v-.429Z" transform="translate(-103.075 -123.08)" fill="#fff"/>
          <path id="Path_564" data-name="Path 564" d="M152.056,125.53c-1.5,0-2.294,1.1-2.294,2.662v.491c0,.638-.172,1.3-1.006,1.349h-1.484v-1.963c0-2.036-1.215-2.539-2.294-2.539a2.307,2.307,0,0,0-2.306,2.515c-.074,1.828.785,2.809,2.429,2.809h1.276a1.593,1.593,0,0,1-.38.883,1.513,1.513,0,0,1-1.239.5,1.567,1.567,0,0,1-.957-.233l-.417.662a2.668,2.668,0,0,0,1.4.331,2.411,2.411,0,0,0,1.828-.712,2.307,2.307,0,0,0,.638-1.435h1.779a1.712,1.712,0,0,0,1.251-.822,2.136,2.136,0,0,0,1.8.846c1.349,0,2.306-.871,2.306-2.7C154.362,126.634,153.552,125.53,152.056,125.53Zm-5.68,4.5h-1.264c-1.276,0-1.632-.871-1.595-1.951.049-1.386.7-1.754,1.435-1.754s1.423.356,1.423,1.742Zm5.68.049c-1.043,0-1.423-.81-1.423-1.9,0-1.509.7-1.877,1.423-1.877s1.435.356,1.435,1.877C153.491,129.272,153.1,130.081,152.056,130.081Z" transform="translate(-103.291 -122.524)" fill="#fff"/>
        </g>
        <g id="Group_371" data-name="Group 371" transform="translate(89.801 1.018)">
          <rect id="Rectangle_1882" data-name="Rectangle 1882" width="1.043" height="1.043" transform="translate(2.969 10.784)" fill="#fff"/>
          <rect id="Rectangle_1883" data-name="Rectangle 1883" width="1.043" height="1.043" transform="translate(4.6 10.784)" fill="#fff"/>
          <rect id="Rectangle_1884" data-name="Rectangle 1884" width="1.043" height="1.043" transform="translate(16.292)" fill="#fff"/>
          <path id="Path_565" data-name="Path 565" d="M172.457,125.53a2.34,2.34,0,0,0-2.294,2.613,2.976,2.976,0,0,0,.564,1.9h-6.22a5.158,5.158,0,0,1-2.589-1.19l-.491.712c.319.184.785.478.981.589l.049.037c.528.319.6.552.6.736.025,1.153-1.975,1.558-3.251,1.558-2.355,0-3.239-.969-3.239-2.184a3.389,3.389,0,0,1,.626-1.889l-.822-.442a4.727,4.727,0,0,0-.724,2.38c0,1.153.613,2.92,4.159,2.92,2.392,0,3.828-.908,4.012-2.024a.673.673,0,0,0-.086-.466,2.135,2.135,0,0,0,.552.074h8.305c1.435,0,2.159-1.165,2.159-2.711C174.763,126.094,173.549,125.53,172.457,125.53Zm0,4.5c-1.031,0-1.423-.822-1.423-1.9,0-1.386.7-1.816,1.423-1.816.748,0,1.435.429,1.435,1.816C173.892,129.443,173.377,130.032,172.457,130.032Z" transform="translate(-155.65 -123.297)" fill="#fff"/>
        </g>
        <g id="Group_372" data-name="Group 372" transform="translate(113.425 1.018)">
          <rect id="Rectangle_1885" data-name="Rectangle 1885" width="1.043" height="1.043" transform="translate(20.516)" fill="#fff"/>
          <path id="Path_566" data-name="Path 566" d="M192.086,130.857h5.631a1.884,1.884,0,0,0,1.693-.748,1.8,1.8,0,0,0,1.619.748h5.876v-.822h-2.159a1.4,1.4,0,0,1-1.4-.859,2.436,2.436,0,0,1,.086-2.368,1.624,1.624,0,0,1,1.313-.528,2.189,2.189,0,0,1,.859.159,2.8,2.8,0,0,1,.712.515l.589-.515a3.268,3.268,0,0,0-.969-.7,2.9,2.9,0,0,0-1.215-.221,2.363,2.363,0,0,0-1.926.761,3.239,3.239,0,0,0,.11,3.754h-1.877a1.113,1.113,0,0,1-1.276-1.19v-1.1c0-2.122-2.147-2.478-3.545-2.024a7.259,7.259,0,0,0-2.024,1.092v-.9h-.92v4.134H179.511v-1.963c0-2.036-1.215-2.539-2.294-2.539a2.307,2.307,0,0,0-2.306,2.515c-.074,1.828.785,2.809,2.429,2.809h1.276a1.593,1.593,0,0,1-.38.883,1.513,1.513,0,0,1-1.239.5,1.567,1.567,0,0,1-.957-.233l-.417.662a2.668,2.668,0,0,0,1.4.331,2.411,2.411,0,0,0,1.828-.712,2.307,2.307,0,0,0,.638-1.435h12.6Zm-13.47-.822h-1.264c-1.276,0-1.632-.871-1.595-1.951.049-1.386.7-1.754,1.435-1.754s1.423.356,1.423,1.742Zm20.254-1.362c0,1.2-.54,1.362-1.472,1.362h-3.226v-2.38a4.98,4.98,0,0,1,2.086-1.19c1.251-.356,2.6-.061,2.6,1.558v.65Z" transform="translate(-174.906 -123.3)" fill="#fff"/>
        </g>
      </g>
    </g>
  </g>
</svg>
