<svg xmlns="http://www.w3.org/2000/svg" width="405.226" height="90.836" viewBox="0 0 405.226 90.836">
  <g id="Group_772" data-name="Group 772" transform="translate(-188.103 -272.068)">
    <g id="Group_690" data-name="Group 690" transform="translate(83.447 -439.609)">
      <path id="Path_809" data-name="Path 809" d="M137.085,744.126h0V711.7l-16.213,16.215Z" fill="#5bc6e8"/>
      <path id="Path_810" data-name="Path 810" d="M104.657,711.7v32.428l16.213-16.215Z" fill="#0088ce"/>
      <path id="Path_811" data-name="Path 811" d="M171.34,711.7H138.912l16.215,16.213Z" fill="#5bc6e8"/>
      <path id="Path_812" data-name="Path 812" d="M138.912,711.7v32.428l16.213-16.215Z" fill="#0088ce"/>
      <path id="Path_813" data-name="Path 813" d="M171.34,778.381h0V745.953l-16.213,16.215Z" fill="#0088ce"/>
      <path id="Path_814" data-name="Path 814" d="M155.126,762.167,138.913,778.38h32.426Z" fill="#5bc6e8"/>
      <path id="Path_815" data-name="Path 815" d="M138.912,745.953v32.428l16.213-16.215Z" fill="#0088ce"/>
      <path id="Path_816" data-name="Path 816" d="M137.085,745.953H104.656l16.215,16.213Z" fill="#0088ce"/>
      <path id="Path_817" data-name="Path 817" d="M104.657,745.953v32.428l16.213-16.215Z" fill="#5bc6e8"/>
      <path id="Path_818" data-name="Path 818" d="M162.976,740.658h-20.6l-3.468,3.465,32.428,0-16.215-16.213-2.448,2.446Z" fill="#1e1656"/>
      <path id="Path_819" data-name="Path 819" d="M128.721,740.658h-20.6l-3.468,3.465,32.428,0L120.87,727.913l-2.448,2.446Z" fill="#1e1656"/>
      <path id="Path_820" data-name="Path 820" d="M128.721,774.916h-20.6l-3.468,3.465,32.428,0L120.87,762.171l-2.448,2.446Z" fill="#1e1656"/>
      <path id="Path_821" data-name="Path 821" d="M167.875,774.916h-25.5l-3.466,3.465,32.426,0Z" fill="#1e1656"/>
      <rect id="Rectangle_2090" data-name="Rectangle 2090" width="3.465" height="3.465" transform="translate(152.676 782.664) rotate(-45.001)" fill="#1e1656"/>
      <rect id="Rectangle_2091" data-name="Rectangle 2091" width="3.465" height="3.465" transform="translate(129.206 762.167) rotate(-45.001)" fill="#1e1656"/>
      <rect id="Rectangle_2092" data-name="Rectangle 2092" width="3.465" height="3.465" transform="translate(152.676 748.426) rotate(-45.001)" fill="#1e1656"/>
    </g>
    <g id="Group_694" data-name="Group 694" transform="translate(83.447 -439.609)">
      <g id="Group_691" data-name="Group 691">
        <path id="Path_822" data-name="Path 822" d="M193.406,736.121V725.894h-8.272v10.227h-4.774V711.68h4.774v9.99h8.272v-9.99h4.774v24.441Z" fill="#1e1656"/>
        <path id="Path_823" data-name="Path 823" d="M212.073,718.887l-3.086,8.895h6.075Zm5.7,17.234-1.44-4.327h-8.684l-1.476,4.327h-4.98l8.889-24.441h3.745l8.926,24.441Z" fill="#1e1656"/>
        <path id="Path_824" data-name="Path 824" d="M243.136,736.121V721.876l-4.666,9.265H235.24l-4.7-9.265v14.245h-4.769V711.68h4.7l6.384,13.216L243.2,711.68h4.7v24.441Z" fill="#1e1656"/>
        <path id="Path_825" data-name="Path 825" d="M261.8,718.887l-3.087,8.895h6.076Zm5.7,17.234-1.44-4.327h-8.689l-1.472,4.327h-4.979l8.889-24.441h3.745l8.926,24.441Z" fill="#1e1656"/>
        <path id="Path_826" data-name="Path 826" d="M287.444,717.448a4.255,4.255,0,0,0-3.57-1.512h-3.606v15.927h3.606a4.269,4.269,0,0,0,3.57-1.507c.89-1.1,1.029-2.85,1.029-6.559s-.139-5.253-1.029-6.349m3.328,16.339a8.9,8.9,0,0,1-6.456,2.335H275.5v-24.44h8.817a8.918,8.918,0,0,1,6.456,2.33c2.747,2.747,2.47,6.112,2.47,9.785s.277,7.243-2.47,9.99" fill="#1e1656"/>
      </g>
      <g id="Group_692" data-name="Group 692">
        <path id="Path_827" data-name="Path 827" d="M316.658,725.858h-4.98v6.008h4.98a3.009,3.009,0,1,0,0-6.008m-.309-9.924h-4.671v5.634h4.671c2.022,0,3.154-1.132,3.154-2.82s-1.132-2.814-3.154-2.814m.788,20.187H306.91V711.68h9.815c4.769,0,7.552,2.675,7.552,6.868a5.642,5.642,0,0,1-3.02,5.041,5.684,5.684,0,0,1,3.365,5.494c0,4.563-3.128,7.038-7.485,7.038" fill="#1e1656"/>
        <rect id="Rectangle_2093" data-name="Rectangle 2093" width="4.774" height="24.441" transform="translate(329.489 711.684)" fill="#1e1656"/>
        <path id="Path_828" data-name="Path 828" d="M354.409,736.121l-9.682-15v15h-4.769V711.68h4.254l9.682,14.965V711.68h4.769v24.441Z" fill="#1e1656"/>
      </g>
      <g id="Group_693" data-name="Group 693">
        <path id="Path_829" data-name="Path 829" d="M386.533,736.121,380.251,725l-3.159,3.776v7.346h-4.774V711.68h4.774v10.644l8.617-10.644h5.8l-8.1,9.713,8.684,14.728Z" fill="#1e1656"/>
        <path id="Path_830" data-name="Path 830" d="M408.188,736.121V725.894h-8.272v10.227h-4.774V711.68h4.774v9.99h8.272v-9.99h4.774v24.441Z" fill="#1e1656"/>
        <path id="Path_831" data-name="Path 831" d="M426.856,718.887l-3.087,8.895h6.076Zm5.7,17.234-1.441-4.327h-8.683l-1.477,4.327h-4.979l8.889-24.441h3.745l8.92,24.441Z" fill="#1e1656"/>
        <path id="Path_832" data-name="Path 832" d="M440.55,736.121V711.68h4.774v20.186H456.41v4.254Z" fill="#1e1656"/>
        <rect id="Rectangle_2094" data-name="Rectangle 2094" width="4.774" height="24.441" transform="translate(460.283 711.684)" fill="#1e1656"/>
        <path id="Path_833" data-name="Path 833" d="M475.522,715.936v6.009h9.646V726.2h-9.646v9.923h-4.769V711.677h16.1v4.259Z" fill="#1e1656"/>
        <path id="Path_834" data-name="Path 834" d="M499.2,718.887l-3.087,8.895h6.076Zm5.7,17.234-1.441-4.327h-8.683l-1.477,4.327h-4.979l8.889-24.441h3.745l8.925,24.441Z" fill="#1e1656"/>
      </g>
    </g>
    <g id="Group_695" data-name="Group 695" transform="translate(83.447 -439.609)">
      <path id="Path_835" data-name="Path 835" d="M189.352,778.234c-5.011,0-8.993-3.4-8.993-8.58V753.588h4.769v15.891c0,2.819,1.652,4.5,4.224,4.5s4.259-1.682,4.259-4.5V753.588h4.733v16.066c0,5.18-3.982,8.58-8.992,8.58" fill="#1e1656"/>
      <path id="Path_836" data-name="Path 836" d="M218.113,778.029l-9.682-15v15h-4.769V753.588h4.254l9.682,14.965V753.588h4.769v24.441Z" fill="#1e1656"/>
      <rect id="Rectangle_2095" data-name="Rectangle 2095" width="4.774" height="24.441" transform="translate(228.064 753.589)" fill="#1e1656"/>
      <path id="Path_837" data-name="Path 837" d="M247.423,778.029h-3.57l-8.066-24.441h4.944l4.908,15.927,4.908-15.927h4.98Z" fill="#1e1656"/>
      <path id="Path_838" data-name="Path 838" d="M258.472,778.029V753.588h16.1v4.254H263.24v5.736h9.651v4.254H263.24v5.937h11.328v4.259Z" fill="#1e1656"/>
      <path id="Path_839" data-name="Path 839" d="M288.5,757.842h-4.5V764.3h4.5a3.236,3.236,0,1,0,0-6.456m3.709,20.187-4.774-9.749h-3.431v9.749h-4.769V753.588h9.574c4.98,0,7.932,3.4,7.932,7.485a6.583,6.583,0,0,1-4.465,6.42l5.458,10.536Z" fill="#1e1656"/>
      <path id="Path_840" data-name="Path 840" d="M308.408,778.234c-3.709,0-6.523-.792-8.925-3.225l3.091-3.092a8,8,0,0,0,5.9,2.063c2.819,0,4.326-1.065,4.326-3.025a2.718,2.718,0,0,0-.756-2.057,3.64,3.64,0,0,0-2.16-.86l-2.953-.411a8.3,8.3,0,0,1-4.738-2.027,6.441,6.441,0,0,1-1.749-4.8c0-4.357,3.225-7.413,8.514-7.413,3.364,0,5.8.823,7.9,2.85l-3.025,2.984a6.789,6.789,0,0,0-5.01-1.682c-2.542,0-3.776,1.409-3.776,3.091a2.354,2.354,0,0,0,.72,1.749,4.211,4.211,0,0,0,2.269.962l2.88.412a8.081,8.081,0,0,1,4.672,1.888,6.856,6.856,0,0,1,1.887,5.185c0,4.733-3.95,7.413-9.064,7.413" fill="#1e1656"/>
      <rect id="Rectangle_2096" data-name="Rectangle 2096" width="4.769" height="24.441" transform="translate(321.964 753.589)" fill="#1e1656"/>
      <path id="Path_841" data-name="Path 841" d="M341.768,757.844V778.03H337V757.844H330.61v-4.254h17.542v4.254Z" fill="#1e1656"/>
      <path id="Path_842" data-name="Path 842" d="M361.364,768v10.021h-4.738V768l-7.346-14.419h5.186l4.563,9.851,4.5-9.851h5.18Z" fill="#1e1656"/>
    </g>
    <path id="Path_843" data-name="Path 843" d="M299.973,802.165v-3.137a1.811,1.811,0,0,0-.507-1.364,1.718,1.718,0,0,0-1.254-.457,1.768,1.768,0,0,0-1.375.6v-.536h-.716v4.9h.716v-3.017a1.153,1.153,0,0,1,1.215-1.3,1.141,1.141,0,0,1,1.2,1.3v3.017Zm-5.9-2.449a2.135,2.135,0,0,1-.388,1.514,1.259,1.259,0,0,1-.9.359,1.236,1.236,0,0,1-.887-.359,3.078,3.078,0,0,1,0-3.028,1.236,1.236,0,0,1,.887-.359,1.259,1.259,0,0,1,.9.359,2.132,2.132,0,0,1,.388,1.514m.716,0a2.637,2.637,0,0,0-.6-1.952,2.049,2.049,0,0,0-2.809,0,3.495,3.495,0,0,0,0,3.9,2.052,2.052,0,0,0,2.809,0,2.638,2.638,0,0,0,.6-1.952m-5.346-2.443h-.716v4.892h.716Zm.049-2.2h-.805v.8h.805Zm-1.991,7.089v-.616h-.378c-.459,0-.668-.27-.668-.718v-2.988H287.5V797.3h-1.046v-1.534h-.715V797.3h-.617v.545h.617v3.008a1.2,1.2,0,0,0,1.253,1.314Zm-4.141-1.732a1.127,1.127,0,0,1-.249.846,1.427,1.427,0,0,1-1.1.329c-.778,0-1.126-.269-1.126-.837s.359-.867,1.1-.867h1.375Zm.716,1.732V798.84c0-1.067-.646-1.633-1.961-1.633a1.9,1.9,0,0,0-1.732.726l.487.448a1.285,1.285,0,0,1,1.235-.557c.9,0,1.255.358,1.255,1.076v.467h-1.474c-1.1,0-1.692.558-1.692,1.414a1.41,1.41,0,0,0,.368,1,1.745,1.745,0,0,0,1.384.447,1.724,1.724,0,0,0,1.414-.526v.467Zm-5.8-2.449c0,.957-.16,1.873-1.226,1.873s-1.235-.916-1.235-1.873.17-1.873,1.235-1.873,1.226.917,1.226,1.873m.715,2.449v-7.089h-.715v2.757a1.58,1.58,0,0,0-1.386-.626,1.71,1.71,0,0,0-1.194.428,3.927,3.927,0,0,0,0,4.163,1.709,1.709,0,0,0,1.194.426,1.59,1.59,0,0,0,1.395-.645v.586Zm-5.177,0v-3.137a1.815,1.815,0,0,0-.507-1.364,1.719,1.719,0,0,0-1.255-.457,1.771,1.771,0,0,0-1.375.6v-.536h-.715v4.9h.715v-3.017a1.153,1.153,0,0,1,1.216-1.3,1.141,1.141,0,0,1,1.205,1.3v3.017Zm-5.447,0v-4.9h-.715v3.016a1.16,1.16,0,0,1-1.225,1.3c-.737,0-1.2-.438-1.2-1.3v-3.016h-.716v3.126a1.825,1.825,0,0,0,.5,1.374,1.745,1.745,0,0,0,1.264.456,1.8,1.8,0,0,0,1.385-.6v.546Zm-5.853-2.449a2.135,2.135,0,0,1-.389,1.514,1.253,1.253,0,0,1-.895.359,1.238,1.238,0,0,1-.888-.359,3.078,3.078,0,0,1,0-3.028,1.238,1.238,0,0,1,.888-.359,1.253,1.253,0,0,1,.895.359,2.132,2.132,0,0,1,.389,1.514m.716,0a2.633,2.633,0,0,0-.6-1.952,2.048,2.048,0,0,0-2.808,0,3.495,3.495,0,0,0,0,3.9,2.051,2.051,0,0,0,2.808,0,2.634,2.634,0,0,0,.6-1.952m-4.41-3.963v-.677h-4.4v7.089h.756v-3.127h3.106v-.675H255.17v-2.61Zm-7.536,1.911a1.516,1.516,0,0,0-1.176-.457,1.649,1.649,0,0,0-1.374.656v-.6h-.715v4.9h.715v-3.007a1.2,1.2,0,0,1,1.176-1.315,1.026,1.026,0,0,1,.846.359Zm-5.526,2.769a1.128,1.128,0,0,1-.249.846,1.425,1.425,0,0,1-1.1.329c-.777,0-1.126-.269-1.126-.837s.359-.867,1.1-.867h1.374Zm.716,1.732V798.84c0-1.067-.646-1.633-1.96-1.633a1.9,1.9,0,0,0-1.733.726l.488.448a1.286,1.286,0,0,1,1.235-.557c.9,0,1.254.358,1.254,1.076v.467h-1.473c-1.1,0-1.693.558-1.693,1.414a1.415,1.415,0,0,0,.368,1,1.748,1.748,0,0,0,1.384.447,1.724,1.724,0,0,0,1.414-.526v.467Zm-4.639,0v-.616h-.378c-.458,0-.667-.27-.667-.718v-2.988h1.045V797.3h-1.045v-1.534h-.715V797.3h-.618v.545h.618v3.008a1.2,1.2,0,0,0,1.252,1.314Zm-4.14-1.732a1.132,1.132,0,0,1-.249.846,1.428,1.428,0,0,1-1.1.329c-.778,0-1.126-.269-1.126-.837s.359-.867,1.1-.867h1.375Zm.716,1.732V798.84c0-1.066-.647-1.633-1.961-1.633a1.9,1.9,0,0,0-1.733.726l.487.448a1.287,1.287,0,0,1,1.235-.557c.9,0,1.256.358,1.256,1.076v.468h-1.475c-1.1,0-1.691.557-1.691,1.414a1.409,1.409,0,0,0,.367.995,1.747,1.747,0,0,0,1.384.447,1.726,1.726,0,0,0,1.415-.526v.467Zm-5.694-3.544a4.067,4.067,0,0,1-.289,2.1l-.867-.866-.458.458.9.9a1.632,1.632,0,0,1-1.006.339,1.719,1.719,0,0,1-1.225-.508c-.448-.459-.5-.936-.5-2.42s.049-1.962.5-2.42a1.732,1.732,0,0,1,2.451,0c.447.458.5.936.5,2.42m1.043,3.435-.775-.777c.488-.606.488-1.3.488-2.658,0-1.5,0-2.2-.667-2.868a2.6,2.6,0,0,0-3.625,0c-.666.667-.666,1.363-.666,2.868s0,2.2.666,2.868a2.512,2.512,0,0,0,1.812.735,2.474,2.474,0,0,0,1.524-.5l.786.785Zm-8.393-4.213V797.3h-1.045v-.908c0-.448.2-.718.657-.718h.388v-.615h-.517a1.192,1.192,0,0,0-1.243,1.314v.927h-.628v.545h.628v4.322h.715v-4.322Zm-3.971,1.873A2.139,2.139,0,0,1,221,801.23a1.258,1.258,0,0,1-.9.359,1.233,1.233,0,0,1-.886-.359,3.072,3.072,0,0,1,0-3.028,1.233,1.233,0,0,1,.886-.359,1.258,1.258,0,0,1,.9.359,2.137,2.137,0,0,1,.388,1.514m.715,0a2.628,2.628,0,0,0-.6-1.952,2.049,2.049,0,0,0-2.809,0,3.495,3.495,0,0,0,0,3.9,2.052,2.052,0,0,0,2.809,0,2.629,2.629,0,0,0,.6-1.952m-6.75-2.052a1.511,1.511,0,0,0-1.174-.457,1.646,1.646,0,0,0-1.374.656v-.6h-.716v4.9h.716v-3.007a1.2,1.2,0,0,1,1.174-1.315,1.025,1.025,0,0,1,.847.359Zm-5.306,1.7H207.46a2.056,2.056,0,0,1,.15-.816,1.257,1.257,0,0,1,2.289,0,2.074,2.074,0,0,1,.15.816m.717.537v-.328c0-1.454-.747-2.369-2.012-2.369-1.244,0-2.01.925-2.01,2.509,0,1.733.845,2.508,2.14,2.508a2.242,2.242,0,0,0,1.792-.756l-.488-.427a1.609,1.609,0,0,1-1.285.557c-.935,0-1.443-.617-1.443-1.694Zm-5.8-.188c0,.957-.16,1.873-1.225,1.873s-1.235-.916-1.235-1.873.168-1.873,1.235-1.873,1.225.917,1.225,1.873m.715,0a2.923,2.923,0,0,0-.6-2.081,1.709,1.709,0,0,0-1.195-.428,1.575,1.575,0,0,0-1.384.626v-2.757h-.716v7.089h.716v-.586a1.571,1.571,0,0,0,1.384.645,1.708,1.708,0,0,0,1.195-.426,2.927,2.927,0,0,0,.6-2.082m-5.435,2.449v-3.137a1.824,1.824,0,0,0-.527-1.364,1.792,1.792,0,0,0-1.265-.457,1.877,1.877,0,0,0-1.613.815,1.616,1.616,0,0,0-1.5-.815,1.792,1.792,0,0,0-1.384.6v-.536h-.716v4.9h.716v-3.017a1.159,1.159,0,0,1,1.225-1.3,1.141,1.141,0,0,1,1.205,1.3v3.017h.716v-3.1a1.217,1.217,0,1,1,2.431.08v3.017Zm-9.051-2.8H188.6a2.04,2.04,0,0,1,.149-.816,1.258,1.258,0,0,1,2.29,0,2.057,2.057,0,0,1,.149.816m.717.537v-.328c0-1.454-.747-2.369-2.012-2.369-1.244,0-2.009.925-2.009,2.509,0,1.733.844,2.508,2.139,2.508a2.242,2.242,0,0,0,1.792-.756l-.488-.427a1.609,1.609,0,0,1-1.284.557c-.936,0-1.443-.617-1.443-1.694Zm-5.476,2.261v-7.089h-.756l-2.25,5.029-2.311-5.029h-.756v7.089h.756v-5.386l1.972,4.272h.647l1.942-4.272v5.386Z" transform="translate(83.447 -439.609)" fill="#00483a"/>
  </g>
</svg>
