<svg xmlns="http://www.w3.org/2000/svg" width="37.42" height="41.197" viewBox="0 0 37.42 41.197">
  <g id="Group_772" data-name="Group 772" transform="translate(-188.103 -272.08)">
    <g id="Group_690" data-name="Group 690" transform="translate(188.103 272.079)">
      <path id="Path_809" data-name="Path 809" d="M129.97,729.895h0V711.7l-9.1,9.1Z" transform="translate(-111.772 -711.698)" fill="#5bc6e8"/>
      <path id="Path_810" data-name="Path 810" d="M104.657,711.7v18.2l9.1-9.1Z" transform="translate(-104.657 -711.698)" fill="#0088ce"/>
      <path id="Path_811" data-name="Path 811" d="M157.109,711.7h-18.2l9.1,9.1Z" transform="translate(-119.689 -711.698)" fill="#5bc6e8"/>
      <path id="Path_812" data-name="Path 812" d="M138.912,711.7v18.2l9.1-9.1Z" transform="translate(-119.689 -711.698)" fill="#0088ce"/>
      <path id="Path_813" data-name="Path 813" d="M164.225,764.15h0v-18.2l-9.1,9.1Z" transform="translate(-126.805 -726.73)" fill="#0088ce"/>
      <path id="Path_814" data-name="Path 814" d="M148.011,762.167l-9.1,9.1h18.2Z" transform="translate(-119.69 -733.846)" fill="#5bc6e8"/>
      <path id="Path_815" data-name="Path 815" d="M138.912,745.953v18.2l9.1-9.1Z" transform="translate(-119.689 -726.73)" fill="#0088ce"/>
      <path id="Path_816" data-name="Path 816" d="M122.854,745.953h-18.2l9.1,9.1Z" transform="translate(-104.656 -726.73)" fill="#0088ce"/>
      <path id="Path_817" data-name="Path 817" d="M104.657,745.953v18.2l9.1-9.1Z" transform="translate(-104.657 -726.73)" fill="#5bc6e8"/>
      <path id="Path_818" data-name="Path 818" d="M152.416,735.065H140.859l-1.946,1.944,18.2,0-9.1-9.1-1.374,1.373Z" transform="translate(-119.689 -718.814)" fill="#1e1656"/>
      <path id="Path_819" data-name="Path 819" d="M118.16,735.065H106.6l-1.946,1.944,18.2,0-9.1-9.1-1.374,1.373Z" transform="translate(-104.657 -718.814)" fill="#1e1656"/>
      <path id="Path_820" data-name="Path 820" d="M118.16,769.323H106.6l-1.946,1.944,18.2,0-9.1-9.1-1.374,1.373Z" transform="translate(-104.657 -733.847)" fill="#1e1656"/>
      <path id="Path_821" data-name="Path 821" d="M155.165,774.916H140.858l-1.945,1.944,18.2,0Z" transform="translate(-119.69 -739.44)" fill="#1e1656"/>
      <rect id="Rectangle_2090" data-name="Rectangle 2090" width="1.944" height="1.944" transform="translate(26.947 39.823) rotate(-45.001)" fill="#1e1656"/>
      <rect id="Rectangle_2091" data-name="Rectangle 2091" width="1.944" height="1.944" transform="translate(13.776 28.321) rotate(-45.001)" fill="#1e1656"/>
      <rect id="Rectangle_2092" data-name="Rectangle 2092" width="1.944" height="1.944" transform="translate(26.947 20.61) rotate(-45.001)" fill="#1e1656"/>
    </g>
  </g>
</svg>
